<svg width="20" height="20" viewBox="0 0 20 20" fill="none" xmlns="http://www.w3.org/2000/svg">
<path fill-rule="evenodd" clip-rule="evenodd" d="M9.99997 19.8999C4.53235 19.8999 0.099968 15.4676 0.099968 9.99994C0.099968 4.53233 4.53235 0.0999451 9.99997 0.0999451C15.4676 0.0999451 19.9 4.53233 19.9 9.99994C19.9 15.4676 15.4676 19.8999 9.99997 19.8999ZM9.99997 18.0999C14.4735 18.0999 18.1 14.4734 18.1 9.99994C18.1 5.52644 14.4735 1.89994 9.99997 1.89994C5.52646 1.89994 1.89997 5.52644 1.89997 9.99994C1.89997 14.4734 5.52646 18.0999 9.99997 18.0999ZM12.9636 6.66355L8.19997 11.4272L6.13637 9.36355L4.86358 10.6363L8.19997 13.9727L14.2364 7.93635L12.9636 6.66355Z" fill="#27AE60"/>
</svg>
